{
	"asset":{
		"generator":"Khronos glTF Blender I/O v4.0.44",
		"version":"2.0"
	},
	"extensionsUsed":[
		"EXT_texture_webp"
	],
	"scene":0,
	"scenes":[
		{
			"name":"Scene",
			"nodes":[
				0
			]
		}
	],
	"nodes":[
		{
			"mesh":0,
			"name":"Object_11.001"
		}
	],
	"materials":[
		{
			"doubleSided":true,
			"name":"sciana_okno",
			"pbrMetallicRoughness":{
				"baseColorTexture":{
					"index":0
				},
				"metallicFactor":0,
				"roughnessFactor":0.6000000238418579
			}
		},
		{
			"doubleSided":true,
			"name":"Material.001",
			"pbrMetallicRoughness":{
				"baseColorTexture":{
					"index":1
				},
				"metallicFactor":0,
				"roughnessFactor":0.6000000238418579
			}
		},
		{
			"doubleSided":true,
			"name":"Material.002",
			"pbrMetallicRoughness":{
				"baseColorTexture":{
					"index":2
				},
				"metallicFactor":0,
				"roughnessFactor":0.6000000238418579
			}
		},
		{
			"doubleSided":true,
			"name":"Material.003",
			"pbrMetallicRoughness":{
				"baseColorTexture":{
					"index":3
				},
				"metallicFactor":0,
				"roughnessFactor":0.6000000238418579
			}
		},
		{
			"doubleSided":true,
			"name":"podloga",
			"pbrMetallicRoughness":{
				"baseColorTexture":{
					"index":4
				},
				"metallicFactor":0,
				"roughnessFactor":0.6000000238418579
			}
		},
		{
			"doubleSided":true,
			"name":"stolik",
			"pbrMetallicRoughness":{
				"baseColorTexture":{
					"index":5
				},
				"metallicFactor":0,
				"roughnessFactor":0.6000000238418579
			}
		},
		{
			"alphaMode":"BLEND",
			"doubleSided":true,
			"name":"Logo",
			"pbrMetallicRoughness":{
				"baseColorTexture":{
					"index":6
				},
				"metallicFactor":0,
				"roughnessFactor":0.5
			}
		},
		{
			"alphaMode":"BLEND",
			"doubleSided":true,
			"name":"Glass.002",
			"normalTexture":{
				"index":7,
				"scale":0.20999999344348907
			},
			"pbrMetallicRoughness":{
				"baseColorFactor":[
					0.828483521938324,
					0.7956093549728394,
					0.706363320350647,
					1
				],
				"baseColorTexture":{
					"index":8
				},
				"metallicFactor":0,
				"metallicRoughnessTexture":{
					"index":9
				}
			}
		}
	],
	"meshes":[
		{
			"name":"Object_9.001",
			"primitives":[
				{
					"attributes":{
						"POSITION":0,
						"NORMAL":1,
						"TEXCOORD_0":2,
						"TEXCOORD_1":3
					},
					"indices":4,
					"material":0
				},
				{
					"attributes":{
						"POSITION":5,
						"NORMAL":6,
						"TEXCOORD_0":7,
						"TEXCOORD_1":8
					},
					"indices":9,
					"material":1
				},
				{
					"attributes":{
						"POSITION":10,
						"NORMAL":11,
						"TEXCOORD_0":12,
						"TEXCOORD_1":13
					},
					"indices":14,
					"material":2
				},
				{
					"attributes":{
						"POSITION":15,
						"NORMAL":16,
						"TEXCOORD_0":17,
						"TEXCOORD_1":18
					},
					"indices":19,
					"material":3
				},
				{
					"attributes":{
						"POSITION":20,
						"NORMAL":21,
						"TEXCOORD_0":22,
						"TEXCOORD_1":23
					},
					"indices":24,
					"material":4
				},
				{
					"attributes":{
						"POSITION":25,
						"NORMAL":26,
						"TEXCOORD_0":27,
						"TEXCOORD_1":28
					},
					"indices":29,
					"material":5
				},
				{
					"attributes":{
						"POSITION":30,
						"NORMAL":31,
						"TEXCOORD_0":32,
						"TEXCOORD_1":33
					},
					"indices":34,
					"material":6
				},
				{
					"attributes":{
						"POSITION":35,
						"NORMAL":36,
						"TEXCOORD_0":37,
						"TEXCOORD_1":38
					},
					"indices":39,
					"material":7
				}
			]
		}
	],
	"textures":[
		{
			"extensions":{
				"EXT_texture_webp":{
					"source":0
				}
			},
			"sampler":0,
			"source":1
		},
		{
			"extensions":{
				"EXT_texture_webp":{
					"source":2
				}
			},
			"sampler":0,
			"source":3
		},
		{
			"extensions":{
				"EXT_texture_webp":{
					"source":4
				}
			},
			"sampler":0,
			"source":5
		},
		{
			"extensions":{
				"EXT_texture_webp":{
					"source":6
				}
			},
			"sampler":0,
			"source":7
		},
		{
			"extensions":{
				"EXT_texture_webp":{
					"source":8
				}
			},
			"sampler":0,
			"source":9
		},
		{
			"extensions":{
				"EXT_texture_webp":{
					"source":10
				}
			},
			"sampler":0,
			"source":11
		},
		{
			"extensions":{
				"EXT_texture_webp":{
					"source":12
				}
			},
			"sampler":1,
			"source":13
		},
		{
			"extensions":{
				"EXT_texture_webp":{
					"source":14
				}
			},
			"sampler":0,
			"source":15
		},
		{
			"extensions":{
				"EXT_texture_webp":{
					"source":16
				}
			},
			"sampler":0,
			"source":17
		},
		{
			"extensions":{
				"EXT_texture_webp":{
					"source":18
				}
			},
			"sampler":0,
			"source":19
		}
	],
	"images":[
		{
			"mimeType":"image/webp",
			"name":"sciana_okno_baseColor",
			"uri":"sciana_okno_baseColor.webp"
		},
		{
			"mimeType":"image/png",
			"name":"sciana_okno_baseColor",
			"uri":"sciana_okno_baseColor.png"
		},
		{
			"mimeType":"image/webp",
			"name":"Material_baseColor",
			"uri":"Material_baseColor.webp"
		},
		{
			"mimeType":"image/png",
			"name":"Material_baseColor",
			"uri":"Material_baseColor.png"
		},
		{
			"mimeType":"image/webp",
			"name":"Material.002_baseColor",
			"uri":"Material_002_baseColor.webp"
		},
		{
			"mimeType":"image/png",
			"name":"Material.002_baseColor",
			"uri":"Material_002_baseColor.png"
		},
		{
			"mimeType":"image/webp",
			"name":"Material.003_baseColor",
			"uri":"Material_003_baseColor.webp"
		},
		{
			"mimeType":"image/jpeg",
			"name":"Material.003_baseColor",
			"uri":"Material_003_baseColor.jpg"
		},
		{
			"mimeType":"image/webp",
			"name":"podloga_baseColor",
			"uri":"podloga_baseColor.webp"
		},
		{
			"mimeType":"image/png",
			"name":"podloga_baseColor",
			"uri":"podloga_baseColor.png"
		},
		{
			"mimeType":"image/webp",
			"name":"stolik_baseColor",
			"uri":"stolik_baseColor.webp"
		},
		{
			"mimeType":"image/png",
			"name":"stolik_baseColor",
			"uri":"stolik_baseColor.png"
		},
		{
			"mimeType":"image/webp",
			"name":"Logo",
			"uri":"Logo.webp"
		},
		{
			"mimeType":"image/png",
			"name":"Logo",
			"uri":"Logo.png"
		},
		{
			"mimeType":"image/webp",
			"name":"garage_floor_nor_gl_4k",
			"uri":"garage_floor_nor_gl_4k.webp"
		},
		{
			"mimeType":"image/jpeg",
			"name":"garage_floor_nor_gl_4k",
			"uri":"garage_floor_nor_gl_4k.jpg"
		},
		{
			"mimeType":"image/webp",
			"name":"garage_floor_rough_4k",
			"uri":"garage_floor_rough_4k.webp"
		},
		{
			"mimeType":"image/png",
			"name":"garage_floor_rough_4k",
			"uri":"garage_floor_rough_4k.png"
		},
		{
			"mimeType":"image/webp",
			"name":"garage_floor_rough_4k",
			"uri":"garage_floor_rough_4k-1.webp"
		},
		{
			"mimeType":"image/png",
			"name":"garage_floor_rough_4k",
			"uri":"garage_floor_rough_4k-1.png"
		}
	],
	"accessors":[
		{
			"bufferView":0,
			"componentType":5126,
			"count":64,
			"max":[
				6.932417392730713,
				10.86478042602539,
				-5.388985633850098
			],
			"min":[
				-7.150076866149902,
				-0.07824456691741943,
				-6.268678665161133
			],
			"type":"VEC3"
		},
		{
			"bufferView":1,
			"componentType":5126,
			"count":64,
			"type":"VEC3"
		},
		{
			"bufferView":2,
			"componentType":5126,
			"count":64,
			"type":"VEC2"
		},
		{
			"bufferView":3,
			"componentType":5126,
			"count":64,
			"type":"VEC2"
		},
		{
			"bufferView":4,
			"componentType":5123,
			"count":132,
			"type":"SCALAR"
		},
		{
			"bufferView":5,
			"componentType":5126,
			"count":24,
			"max":[
				-7.104105472564697,
				10.841968536376953,
				7.8302083015441895
			],
			"min":[
				-7.670154094696045,
				-0.0812402069568634,
				-6.276723384857178
			],
			"type":"VEC3"
		},
		{
			"bufferView":6,
			"componentType":5126,
			"count":24,
			"type":"VEC3"
		},
		{
			"bufferView":7,
			"componentType":5126,
			"count":24,
			"type":"VEC2"
		},
		{
			"bufferView":8,
			"componentType":5126,
			"count":24,
			"type":"VEC2"
		},
		{
			"bufferView":9,
			"componentType":5123,
			"count":36,
			"type":"SCALAR"
		},
		{
			"bufferView":10,
			"componentType":5126,
			"count":3924,
			"max":[
				5.598697662353516,
				8.840449333190918,
				-6.067627429962158
			],
			"min":[
				-5.871285915374756,
				-0.17793309688568115,
				-6.216161251068115
			],
			"type":"VEC3"
		},
		{
			"bufferView":11,
			"componentType":5126,
			"count":3924,
			"type":"VEC3"
		},
		{
			"bufferView":12,
			"componentType":5126,
			"count":3924,
			"type":"VEC2"
		},
		{
			"bufferView":13,
			"componentType":5126,
			"count":3924,
			"type":"VEC2"
		},
		{
			"bufferView":14,
			"componentType":5123,
			"count":9312,
			"type":"SCALAR"
		},
		{
			"bufferView":15,
			"componentType":5126,
			"count":28,
			"max":[
				7.4579243659973145,
				10.841968536376953,
				7.8302083015441895
			],
			"min":[
				-7.1041059494018555,
				-0.0812402069568634,
				-6.276723384857178
			],
			"type":"VEC3"
		},
		{
			"bufferView":16,
			"componentType":5126,
			"count":28,
			"type":"VEC3"
		},
		{
			"bufferView":17,
			"componentType":5126,
			"count":28,
			"type":"VEC2"
		},
		{
			"bufferView":18,
			"componentType":5126,
			"count":28,
			"type":"VEC2"
		},
		{
			"bufferView":19,
			"componentType":5123,
			"count":42,
			"type":"SCALAR"
		},
		{
			"bufferView":20,
			"componentType":5126,
			"count":408,
			"max":[
				6.89382791519165,
				2.3096675872802734,
				7.818477153778076
			],
			"min":[
				-7.174181938171387,
				-0.7631138563156128,
				-6.249527931213379
			],
			"type":"VEC3"
		},
		{
			"bufferView":21,
			"componentType":5126,
			"count":408,
			"type":"VEC3"
		},
		{
			"bufferView":22,
			"componentType":5126,
			"count":408,
			"type":"VEC2"
		},
		{
			"bufferView":23,
			"componentType":5126,
			"count":408,
			"type":"VEC2"
		},
		{
			"bufferView":24,
			"componentType":5123,
			"count":1278,
			"type":"SCALAR"
		},
		{
			"bufferView":25,
			"componentType":5126,
			"count":72,
			"max":[
				7.071591377258301,
				0.1938835233449936,
				8.00440502166748
			],
			"min":[
				-7.101456642150879,
				-0.08866526186466217,
				-5.415535926818848
			],
			"type":"VEC3"
		},
		{
			"bufferView":26,
			"componentType":5126,
			"count":72,
			"type":"VEC3"
		},
		{
			"bufferView":27,
			"componentType":5126,
			"count":72,
			"type":"VEC2"
		},
		{
			"bufferView":28,
			"componentType":5126,
			"count":72,
			"type":"VEC2"
		},
		{
			"bufferView":29,
			"componentType":5123,
			"count":108,
			"type":"SCALAR"
		},
		{
			"bufferView":30,
			"componentType":5126,
			"count":4,
			"max":[
				3.0793349742889404,
				4.574619770050049,
				7.8085246086120605
			],
			"min":[
				-3.1296138763427734,
				2.477557897567749,
				7.808521270751953
			],
			"type":"VEC3"
		},
		{
			"bufferView":31,
			"componentType":5126,
			"count":4,
			"type":"VEC3"
		},
		{
			"bufferView":32,
			"componentType":5126,
			"count":4,
			"type":"VEC2"
		},
		{
			"bufferView":33,
			"componentType":5126,
			"count":4,
			"type":"VEC2"
		},
		{
			"bufferView":34,
			"componentType":5123,
			"count":6,
			"type":"SCALAR"
		},
		{
			"bufferView":35,
			"componentType":5126,
			"count":72,
			"max":[
				6.481472492218018,
				2.2571730613708496,
				7.454040050506592
			],
			"min":[
				-6.533001899719238,
				0.17408497631549835,
				-1.085686445236206
			],
			"type":"VEC3"
		},
		{
			"bufferView":36,
			"componentType":5126,
			"count":72,
			"type":"VEC3"
		},
		{
			"bufferView":37,
			"componentType":5126,
			"count":72,
			"type":"VEC2"
		},
		{
			"bufferView":38,
			"componentType":5126,
			"count":72,
			"type":"VEC2"
		},
		{
			"bufferView":39,
			"componentType":5123,
			"count":108,
			"type":"SCALAR"
		}
	],
	"bufferViews":[
		{
			"buffer":0,
			"byteLength":768,
			"byteOffset":0,
			"target":34962
		},
		{
			"buffer":0,
			"byteLength":768,
			"byteOffset":768,
			"target":34962
		},
		{
			"buffer":0,
			"byteLength":512,
			"byteOffset":1536,
			"target":34962
		},
		{
			"buffer":0,
			"byteLength":512,
			"byteOffset":2048,
			"target":34962
		},
		{
			"buffer":0,
			"byteLength":264,
			"byteOffset":2560,
			"target":34963
		},
		{
			"buffer":0,
			"byteLength":288,
			"byteOffset":2824,
			"target":34962
		},
		{
			"buffer":0,
			"byteLength":288,
			"byteOffset":3112,
			"target":34962
		},
		{
			"buffer":0,
			"byteLength":192,
			"byteOffset":3400,
			"target":34962
		},
		{
			"buffer":0,
			"byteLength":192,
			"byteOffset":3592,
			"target":34962
		},
		{
			"buffer":0,
			"byteLength":72,
			"byteOffset":3784,
			"target":34963
		},
		{
			"buffer":0,
			"byteLength":47088,
			"byteOffset":3856,
			"target":34962
		},
		{
			"buffer":0,
			"byteLength":47088,
			"byteOffset":50944,
			"target":34962
		},
		{
			"buffer":0,
			"byteLength":31392,
			"byteOffset":98032,
			"target":34962
		},
		{
			"buffer":0,
			"byteLength":31392,
			"byteOffset":129424,
			"target":34962
		},
		{
			"buffer":0,
			"byteLength":18624,
			"byteOffset":160816,
			"target":34963
		},
		{
			"buffer":0,
			"byteLength":336,
			"byteOffset":179440,
			"target":34962
		},
		{
			"buffer":0,
			"byteLength":336,
			"byteOffset":179776,
			"target":34962
		},
		{
			"buffer":0,
			"byteLength":224,
			"byteOffset":180112,
			"target":34962
		},
		{
			"buffer":0,
			"byteLength":224,
			"byteOffset":180336,
			"target":34962
		},
		{
			"buffer":0,
			"byteLength":84,
			"byteOffset":180560,
			"target":34963
		},
		{
			"buffer":0,
			"byteLength":4896,
			"byteOffset":180644,
			"target":34962
		},
		{
			"buffer":0,
			"byteLength":4896,
			"byteOffset":185540,
			"target":34962
		},
		{
			"buffer":0,
			"byteLength":3264,
			"byteOffset":190436,
			"target":34962
		},
		{
			"buffer":0,
			"byteLength":3264,
			"byteOffset":193700,
			"target":34962
		},
		{
			"buffer":0,
			"byteLength":2556,
			"byteOffset":196964,
			"target":34963
		},
		{
			"buffer":0,
			"byteLength":864,
			"byteOffset":199520,
			"target":34962
		},
		{
			"buffer":0,
			"byteLength":864,
			"byteOffset":200384,
			"target":34962
		},
		{
			"buffer":0,
			"byteLength":576,
			"byteOffset":201248,
			"target":34962
		},
		{
			"buffer":0,
			"byteLength":576,
			"byteOffset":201824,
			"target":34962
		},
		{
			"buffer":0,
			"byteLength":216,
			"byteOffset":202400,
			"target":34963
		},
		{
			"buffer":0,
			"byteLength":48,
			"byteOffset":202616,
			"target":34962
		},
		{
			"buffer":0,
			"byteLength":48,
			"byteOffset":202664,
			"target":34962
		},
		{
			"buffer":0,
			"byteLength":32,
			"byteOffset":202712,
			"target":34962
		},
		{
			"buffer":0,
			"byteLength":32,
			"byteOffset":202744,
			"target":34962
		},
		{
			"buffer":0,
			"byteLength":12,
			"byteOffset":202776,
			"target":34963
		},
		{
			"buffer":0,
			"byteLength":864,
			"byteOffset":202788,
			"target":34962
		},
		{
			"buffer":0,
			"byteLength":864,
			"byteOffset":203652,
			"target":34962
		},
		{
			"buffer":0,
			"byteLength":576,
			"byteOffset":204516,
			"target":34962
		},
		{
			"buffer":0,
			"byteLength":576,
			"byteOffset":205092,
			"target":34962
		},
		{
			"buffer":0,
			"byteLength":216,
			"byteOffset":205668,
			"target":34963
		}
	],
	"samplers":[
		{
			"magFilter":9729,
			"minFilter":9987
		},
		{
			"magFilter":9729,
			"minFilter":9987,
			"wrapS":33071,
			"wrapT":33071
		}
	],
	"buffers":[
		{
			"byteLength":205884,
			"uri":"villa.bin"
		}
	]
}
